<svg version="1.1" id="Layer_1" xmlns="http://www.w3.org/2000/svg" xmlns:xlink="http://www.w3.org/1999/xlink" x="0px" y="0px"
	 width="100%" viewBox="0 0 1024 1024" enable-background="new 0 0 1024 1024" xml:space="preserve">
<path fill="#000000" opacity="1.000000" stroke="none" 
	d="
M320.468658,1025.000000 
	C321.215942,1018.560364 320.626312,1012.048584 320.686066,1005.571838 
	C320.802856,992.910278 320.900879,980.241821 320.592072,967.586304 
	C320.468170,962.509460 322.361053,960.825378 327.225037,960.858643 
	C344.219025,960.974915 361.214691,960.864136 378.209625,960.815674 
	C384.229095,960.798523 384.638611,960.350525 384.697205,954.190369 
	C384.743164,949.359131 384.758759,944.527588 384.834473,939.696838 
	C384.889374,936.194153 386.398651,935.228271 389.989685,935.976135 
	C400.882050,938.244507 411.837189,940.227844 422.802124,942.124268 
	C428.344299,943.082825 433.426971,944.524536 437.296936,949.072449 
	C440.080841,952.344055 443.785828,953.556580 447.853241,951.692566 
	C448.299072,952.099304 448.694336,952.281250 448.755280,952.541443 
	C450.702484,960.857849 450.697662,960.855530 459.261108,960.852966 
	C474.923309,960.848206 490.588043,960.689819 506.246277,960.938660 
	C511.168640,961.016846 512.761658,959.074036 512.690918,954.481323 
	C512.575500,946.986755 512.917419,939.484131 512.759888,931.991394 
	C512.653564,926.936096 515.249878,923.858093 519.797241,924.283203 
	C538.100281,925.994507 554.069275,916.677307 571.396301,913.933899 
	C572.929688,913.691162 574.339417,912.667297 576.068787,911.888123 
	C577.973633,915.772400 577.854065,919.771423 577.910889,923.673462 
	C578.061218,934.002075 578.160645,944.334717 578.031189,954.662537 
	C577.976379,959.035156 579.363098,960.952148 584.063354,960.898682 
	C601.056152,960.705261 618.053528,960.743958 635.047180,960.905884 
	C639.015808,960.943604 640.531921,959.172485 640.538696,955.593445 
	C640.570740,938.768005 640.682129,921.941284 640.507141,905.117737 
	C640.435120,898.190430 640.825256,897.174500 647.826599,897.082458 
	C664.152710,896.867859 680.482361,896.907837 696.810547,896.870422 
	C704.783264,896.852112 705.427734,896.780457 704.746399,888.840698 
	C703.887451,878.831055 708.758057,870.039795 709.605896,860.462646 
	C709.651855,859.943298 710.326477,859.479675 710.892456,858.754272 
	C713.376099,860.589233 713.174438,863.298523 713.805725,865.554321 
	C714.848145,869.279541 716.492126,872.663147 720.465149,873.567444 
	C724.437134,874.471619 727.130981,871.692383 729.066895,868.732849 
	C733.507385,861.944336 739.265015,857.484436 747.565186,856.646423 
	C749.442993,856.456909 751.630737,855.711182 752.352051,857.880493 
	C754.200073,863.438171 759.155090,863.571167 763.865723,865.180298 
	C767.704346,857.813232 762.839600,849.202515 767.268494,841.806641 
	C769.507935,843.690063 768.892639,845.971558 768.947266,847.982178 
	C769.341064,862.465149 769.770020,876.948914 769.940613,891.435242 
	C769.987854,895.439880 771.242432,897.053345 775.426758,897.004639 
	C792.752869,896.802551 810.082153,896.792664 827.409729,896.859985 
	C831.358093,896.875305 832.711914,895.096863 832.702637,891.407471 
	C832.659607,874.246094 832.598694,857.083374 832.788757,839.923828 
	C832.839172,835.369751 830.048584,834.596924 826.750183,834.443848 
	C820.595398,834.158081 814.424133,834.251099 808.263672,834.058350 
	C801.830261,833.856995 796.224854,828.954468 795.921326,823.432678 
	C795.607910,817.730835 799.894897,813.259705 806.925476,812.066833 
	C809.544739,811.622437 812.187561,811.153198 814.832153,811.063354 
	C818.080261,810.952942 820.442566,812.541565 822.152161,815.406799 
	C825.580566,821.152649 826.162109,821.194214 831.634521,816.926147 
	C834.222595,819.512817 833.117126,822.827087 833.267639,825.778076 
	C833.610779,832.507385 833.937256,832.983948 840.409180,832.973572 
	C857.070801,832.946838 873.733643,832.764709 890.393250,832.925537 
	C895.175903,832.971680 896.839050,831.284546 896.788452,826.525024 
	C896.614990,810.206116 896.640076,793.882324 896.843506,777.563538 
	C896.922302,771.242737 898.347351,770.151245 904.628784,769.732178 
	C920.772400,768.655273 936.939941,769.320679 953.094055,769.037354 
	C960.545715,768.906616 961.018372,768.411133 961.086975,761.037598 
	C961.131836,756.217834 960.017700,751.172607 961.880310,746.661499 
	C964.228760,740.974060 966.574219,736.592163 962.877991,729.607117 
	C960.473938,725.064026 963.281128,717.371887 963.230835,711.039062 
	C963.203918,707.654419 966.246704,706.513672 969.146851,705.932678 
	C973.739136,705.012695 978.403442,704.812622 983.076599,704.826538 
	C996.738831,704.867310 1010.401001,704.915771 1024.531616,704.980591 
	C1025.000000,726.687561 1025.000000,748.375122 1024.614380,770.382202 
	C1005.281250,769.963440 986.328308,770.316956 967.376831,770.435730 
	C963.473083,770.460144 961.829407,772.422485 961.865479,776.399780 
	C962.016296,793.034973 962.117859,809.672791 961.960938,826.307068 
	C961.914429,831.227722 963.583618,833.019775 968.605713,832.971313 
	C987.401978,832.789612 1006.201599,832.960999 1025.000000,833.000000 
	C1025.000000,854.354248 1025.000000,875.708435 1024.535645,897.598877 
	C1020.747131,898.204041 1017.422974,898.323059 1014.098511,898.333374 
	C999.302307,898.379333 984.504700,898.291687 969.710144,898.464294 
	C962.509583,898.548218 962.007141,899.257263 961.998535,906.202026 
	C961.979797,921.334473 961.943298,936.466919 961.972656,951.599304 
	C961.990723,960.892273 962.039062,960.981689 971.130615,961.009399 
	C989.086914,961.064270 1007.043518,961.009460 1025.000000,961.000000 
	C1025.000000,982.260742 1025.000000,1003.521484 1025.000000,1025.000000 
	C1003.646240,1025.000000 982.291809,1025.000000 960.473328,1024.558105 
	C961.216125,1005.983521 960.530579,987.825989 960.694336,969.679993 
	C960.748779,963.654114 959.869812,962.737549 953.785339,962.551636 
	C949.635681,962.424805 945.448730,963.069885 941.320618,962.776123 
	C929.334778,961.923157 917.346558,962.367432 905.363159,962.429810 
	C898.619812,962.464844 897.975037,963.334656 897.967468,970.043396 
	C897.946716,988.362244 897.985046,1006.681152 898.000000,1025.000000 
	C876.312439,1025.000000 854.624878,1025.000000 832.473999,1024.569336 
	C833.213379,1006.169678 832.619751,988.193298 832.439209,970.211243 
	C832.383606,964.677856 829.577271,963.228577 825.079773,963.098022 
	C809.265015,962.639038 793.449524,961.963928 777.624634,962.405334 
	C770.830078,962.594910 770.080811,963.483765 770.060303,970.529175 
	C770.007385,988.686035 770.015991,1006.843018 770.000000,1025.000000 
	C748.312439,1025.000000 726.624878,1025.000000 704.466675,1024.569092 
	C705.139038,1006.196289 704.776794,988.254456 704.277222,970.299072 
	C704.128235,964.946045 701.345642,963.253235 696.866577,963.118713 
	C681.075623,962.644348 665.282898,961.944275 649.481079,962.419495 
	C642.767761,962.621338 642.102356,963.396851 642.079041,970.103882 
	C642.015320,988.402405 642.021484,1006.701294 642.000000,1025.000000 
	C620.312439,1025.000000 598.624878,1025.000000 576.573364,1024.692261 
	C577.253540,1007.245911 576.773560,990.091003 576.538025,972.948120 
	C576.423767,964.627319 574.370422,963.134644 565.757690,963.023010 
	C561.596130,962.969055 557.425354,962.997925 553.276367,962.722839 
	C542.458191,962.005371 531.635681,962.460022 520.815369,962.406555 
	C515.973816,962.382629 513.798096,964.293274 513.919556,969.627075 
	C514.241638,983.776489 513.875916,997.940247 514.042297,1012.095215 
	C514.092896,1016.400818 512.830383,1020.701233 514.000000,1025.000000 
	C492.645782,1025.000000 471.291534,1025.000000 449.376556,1024.538452 
	C448.259369,1004.302063 449.515442,984.491150 447.899536,964.903992 
	C443.152710,962.099426 438.209595,962.311279 433.266449,962.328796 
	C420.116699,962.375488 406.965729,962.244568 393.817108,962.375427 
	C386.632996,962.446838 385.984772,963.198914 385.975769,970.068481 
	C385.951782,988.378906 385.987823,1006.689514 386.000000,1025.000000 
	C364.312439,1025.000000 342.624878,1025.000000 320.468658,1025.000000 
M727.312622,895.664551 
	C722.301453,897.692261 717.091858,898.458618 711.698486,898.284851 
	C707.891113,898.162170 705.911377,899.806702 705.942017,903.951599 
	C706.067505,920.928589 706.117676,937.907593 705.976929,954.884033 
	C705.938721,959.490112 707.769348,960.927124 712.228821,960.879456 
	C729.038757,960.699585 745.852356,960.728149 762.663208,960.860046 
	C766.969849,960.893799 768.668884,959.118164 768.657532,954.932434 
	C768.612854,938.455505 768.500916,921.974792 768.817261,905.503296 
	C768.911682,900.583679 766.940369,899.339050 762.523926,898.964783 
	C752.831665,898.143311 742.857727,899.515564 733.532227,895.325623 
	C732.052917,894.661011 729.947510,895.389832 727.312622,895.664551 
M897.948547,847.508057 
	C897.966675,861.804565 898.136230,876.103271 897.921570,890.396301 
	C897.845581,895.451355 899.763916,897.021118 904.669189,896.957886 
	C921.312439,896.743469 937.960999,896.779480 954.605469,896.939026 
	C959.108826,896.982178 960.814087,895.367432 960.764221,890.815491 
	C960.589111,874.837341 960.715820,858.856018 960.672424,842.876099 
	C960.654785,836.377930 959.432556,835.143494 952.692200,835.006836 
	C938.552551,834.720154 924.411438,834.459045 910.269714,834.335510 
	C895.188354,834.203796 898.284241,835.422791 897.948547,847.508057 
M849.509644,960.844055 
	C863.172119,960.823669 876.835876,960.692200 890.496399,960.845947 
	C895.011841,960.896729 896.772766,959.189453 896.731812,954.682495 
	C896.588379,938.855652 896.705688,923.026611 896.624146,907.198914 
	C896.589355,900.446655 895.424500,899.257874 888.811035,899.100586 
	C874.991760,898.771729 861.170349,898.508301 847.348389,898.327576 
	C844.200439,898.286316 841.045044,898.668945 837.895935,898.896240 
	C835.306641,899.083069 834.055786,900.446716 834.063843,903.112854 
	C834.117065,920.772888 834.149902,938.433105 834.127625,956.093201 
	C834.123291,959.498535 835.698425,960.915894 839.020264,960.827209 
	C842.183044,960.742676 845.350403,960.830017 849.509644,960.844055 
z"/>
<path fill="#000000" opacity="1.000000" stroke="none" 
	d="
M1025.000000,322.531342 
	C1022.758179,322.120880 1020.409485,322.323395 1018.082703,322.324921 
	C1002.252441,322.335297 986.421570,322.268646 970.592285,322.398346 
	C962.604675,322.463806 962.103271,323.201904 961.954102,330.983429 
	C961.797852,339.142761 961.505798,347.299835 961.222900,355.456146 
	C961.166931,357.071442 961.394348,358.851746 959.474426,360.152435 
	C955.081177,357.674255 950.138672,356.396454 945.076843,355.539520 
	C936.816956,354.141235 929.010864,352.184601 922.422729,346.173096 
	C918.157166,342.281006 912.138611,340.639343 906.501221,339.273651 
	C900.120850,337.727966 897.187317,333.973114 896.945618,327.706940 
	C896.840149,324.974274 896.539673,322.573517 893.730469,320.943817 
	C891.709106,319.771149 891.797852,317.158661 891.519775,315.049835 
	C890.029968,303.749817 882.578979,297.907410 872.513123,295.049194 
	C867.226013,293.547913 862.220947,291.651367 858.516113,287.784271 
	C853.216309,282.252289 846.597473,279.241211 839.661499,277.000732 
	C835.246582,275.574646 833.409119,273.125000 833.231018,268.836426 
	C833.168945,267.340607 833.086792,265.836212 832.864624,264.358185 
	C832.152100,259.617859 834.214050,258.017303 838.910828,257.701324 
	C855.894104,256.558838 872.888611,257.045624 889.877502,256.847809 
	C896.200378,256.774200 896.668152,256.367615 896.674316,249.974304 
	C896.689392,234.310715 896.695190,218.646957 896.632874,202.983536 
	C896.607483,196.611267 895.376526,195.203491 889.126953,195.064606 
	C872.973328,194.705658 856.814087,194.599518 840.660339,194.243149 
	C835.808594,194.136108 833.872375,196.005981 833.859619,200.993820 
	C833.823242,215.149475 833.424866,229.304901 833.086365,243.458435 
	C833.028992,245.857468 833.613892,248.473648 831.528076,250.730743 
	C829.535889,249.530304 829.971436,247.558304 829.897217,245.909531 
	C829.792480,243.585556 829.969543,241.248672 830.031616,238.917435 
	C830.274292,229.790787 828.906616,227.930634 820.021301,225.715103 
	C816.777710,224.906326 814.100586,223.566223 812.887817,220.171310 
	C812.305969,218.542603 811.167480,217.189087 809.541016,216.637222 
	C801.461426,213.895782 795.289490,207.401062 786.939819,205.213623 
	C786.627991,205.131927 786.320007,204.940475 786.070923,204.728745 
	C783.112854,202.214035 777.982971,200.245224 778.838562,196.129211 
	C779.668579,192.136124 784.847717,193.980133 788.116699,193.587006 
	C800.236389,192.129562 812.420105,193.243851 824.574036,192.992157 
	C832.057190,192.837173 832.682556,192.301971 832.696716,185.039658 
	C832.727661,169.209229 832.576233,153.377365 832.754333,137.548965 
	C832.806763,132.883392 831.211792,130.725037 826.432556,130.905960 
	C823.952271,130.999847 821.451416,130.406967 818.961548,130.421310 
	C813.903687,130.450439 809.554810,129.927887 805.520386,125.744736 
	C800.405396,120.441185 792.760742,121.866814 786.079468,121.109810 
	C783.137451,120.776466 780.095764,121.447685 777.111755,121.334976 
	C770.340576,121.079224 769.023621,119.802505 768.907776,112.932091 
	C768.725220,102.103340 768.769958,91.270752 768.720825,80.439781 
	C768.716248,79.440018 768.733765,78.440155 768.732422,77.440353 
	C768.718201,67.036339 768.725647,66.933289 758.547363,66.147202 
	C752.879456,65.709465 749.913818,61.509735 747.664062,57.542862 
	C742.283691,48.056248 733.440613,43.907406 724.029846,40.278770 
	C719.132263,38.390327 714.397583,40.374969 709.841675,41.533367 
	C705.473206,42.644089 704.856201,40.862064 704.867859,37.426098 
	C704.907898,25.596083 704.918945,13.765969 704.970520,1.467947 
	C726.354248,1.000000 747.708435,1.000000 769.550537,1.468415 
	C770.004395,20.593512 769.940430,39.250210 769.952087,57.906860 
	C769.956421,64.876633 770.119995,65.012741 776.846558,65.012291 
	C793.004761,65.011215 809.163025,64.976913 825.321106,64.916687 
	C832.010376,64.891754 832.587341,64.324890 832.625000,57.403049 
	C832.699341,43.743526 832.760254,30.083090 832.675110,16.423975 
	C832.643066,11.282386 833.293457,6.092484 832.000000,1.000000 
	C853.687561,1.000000 875.375122,1.000000 897.523315,1.416461 
	C897.997742,21.271832 898.061890,40.710953 897.981689,60.149471 
	C897.966125,63.919075 899.656433,64.991531 903.151794,64.969482 
	C920.450867,64.860344 937.751526,64.813560 955.050110,64.943726 
	C959.537231,64.977486 960.762146,62.942314 960.712341,58.852455 
	C960.477783,39.568321 961.071167,20.274538 960.000000,1.000000 
	C981.593506,1.000000 1003.187012,1.000000 1025.000000,1.000000 
	C1025.000000,22.353727 1025.000000,43.708206 1024.574951,65.569916 
	C1016.192444,67.070679 1008.218323,66.145271 1000.252258,66.266563 
	C989.615051,66.428528 978.974243,66.349709 968.336914,66.506378 
	C964.518921,66.562599 961.810913,67.581993 961.888367,72.573242 
	C962.143677,89.026772 961.913574,105.487206 961.994507,121.944374 
	C962.027344,128.613541 962.459839,128.941925 969.144043,128.955750 
	C987.762634,128.994278 1006.381348,128.988358 1025.000000,129.000000 
	C1025.000000,150.687561 1025.000000,172.375122 1024.606934,194.411499 
	C1015.771179,193.347122 1007.331726,195.197922 998.854004,194.726715 
	C988.745300,194.164856 978.585938,194.511246 968.448547,194.466339 
	C963.759644,194.445572 961.804993,196.400208 961.897766,201.449463 
	C962.193726,217.560486 961.947266,233.680679 962.047424,249.796478 
	C962.089539,256.577576 962.466919,256.823639 969.148438,256.846863 
	C987.765564,256.911530 1006.382812,256.950745 1025.000000,257.000000 
	C1025.000000,278.687561 1025.000000,300.375122 1025.000000,322.531342 
M934.282837,258.365295 
	C924.300720,258.373077 914.318298,258.345245 904.336548,258.407471 
	C900.732178,258.429932 897.944824,259.124908 897.920166,263.925873 
	C897.830566,281.385223 897.498352,298.844421 897.108765,316.300354 
	C897.018555,320.342529 898.375732,322.030884 902.598328,321.787659 
	C920.042297,320.782959 937.513062,320.811371 954.977295,320.918854 
	C959.366882,320.945892 960.784180,319.116455 960.746033,314.927307 
	C960.598877,298.790710 960.702881,282.651947 960.616516,266.514526 
	C960.584900,260.606903 959.216919,259.302856 953.175842,259.023438 
	C947.197632,258.746887 941.214111,258.586151 934.282837,258.365295 
M960.690125,151.502258 
	C960.672363,146.512711 960.655640,141.523178 960.636353,136.533630 
	C960.623413,133.182343 959.166504,131.141708 955.605774,131.079926 
	C938.152405,130.777069 920.705261,129.916855 903.242249,130.468063 
	C899.683350,130.580399 897.823547,132.095779 897.932739,136.019379 
	C898.404358,152.967026 897.103394,169.912979 897.882751,186.874237 
	C898.087830,191.336823 899.555542,193.010483 904.089905,192.959366 
	C921.052490,192.768204 938.019104,192.769577 954.982361,192.915787 
	C959.417786,192.954010 960.783936,191.082169 960.732300,186.928726 
	C960.589600,175.454514 960.684204,163.977356 960.690125,151.502258 
M895.807739,127.297424 
	C896.082458,125.838943 896.591309,124.381233 896.596130,122.921867 
	C896.650452,106.432503 896.644470,89.942848 896.610107,73.453369 
	C896.603760,70.390732 896.613892,67.183945 892.227539,67.056328 
	C874.583618,66.542992 856.939636,65.984039 839.285217,66.448792 
	C835.738281,66.542160 833.917114,68.101601 833.946533,72.019257 
	C834.074402,89.007591 834.106201,105.998665 833.921021,122.985992 
	C833.871033,127.575485 835.533020,129.013672 840.053711,128.961441 
	C856.874023,128.767151 873.698303,128.915863 890.521057,128.906479 
	C892.158875,128.905579 893.881714,129.140198 895.807739,127.297424 
z"/>
<path fill="#000000" opacity="1.000000" stroke="none" 
	d="
M193.531342,1.000000 
	C194.041092,20.484913 194.125992,39.969925 194.082352,59.454647 
	C194.074615,62.910191 194.763718,65.071060 198.812027,65.516258 
	C201.762009,65.840668 206.077103,64.110153 207.416016,67.615578 
	C208.889160,71.472458 207.758270,76.022110 205.905991,79.700935 
	C203.422318,84.633820 198.711166,87.677490 194.354828,91.768402 
	C191.898346,86.921082 192.913574,82.541191 192.773651,78.348526 
	C192.384720,66.696159 194.836914,67.336632 181.602203,66.781967 
	C167.275818,66.181549 152.966476,66.371826 138.650314,66.380066 
	C130.353928,66.384834 129.983185,66.966454 129.991638,75.223061 
	C130.007828,91.045479 130.124908,106.869637 129.917114,122.689354 
	C129.854202,127.479416 131.587158,129.016647 136.304642,128.995651 
	C146.621857,128.949707 156.942657,129.387039 167.258957,129.721436 
	C169.507690,129.794327 171.957825,129.352890 173.923859,131.216461 
	C163.788391,146.514954 160.385513,164.243668 155.314636,181.356674 
	C155.125427,181.995239 154.908569,182.625626 154.703156,183.259354 
	C151.188843,194.101196 151.188446,194.084442 139.812881,194.322083 
	C137.989044,194.360168 136.168381,194.608215 134.348953,194.786713 
	C131.361298,195.079865 129.969376,196.704987 129.978897,199.743774 
	C130.035736,217.883148 130.040817,236.022675 130.068069,254.162140 
	C130.070114,255.520569 130.284760,256.762390 131.400467,257.771576 
	C133.409058,259.588348 132.115967,260.556671 130.107758,261.533722 
	C128.598251,259.112396 126.397537,258.171600 123.487183,258.352814 
	C108.015213,259.316040 92.539680,257.803741 77.064255,258.319122 
	C74.739052,258.396545 72.417915,258.600189 70.095421,258.753265 
	C67.248398,258.940857 66.032883,260.462311 66.043137,263.313751 
	C66.106651,280.967255 66.137878,298.621063 66.101402,316.274597 
	C66.094200,319.757935 67.792427,320.894440 71.038979,320.960022 
	C74.525146,321.030396 78.008492,321.438080 81.483360,321.793610 
	C83.471825,321.997040 84.276054,322.980072 83.942772,325.193390 
	C82.209816,336.701660 78.859138,347.641357 71.850250,357.047394 
	C69.043007,360.814697 69.630737,365.686676 66.685349,369.815735 
	C64.953773,366.944061 64.944435,364.161743 64.913162,361.435272 
	C64.789040,350.610413 64.704552,339.784821 64.668716,328.959290 
	C64.657349,325.522278 63.751701,323.075256 59.688122,323.068695 
	C40.876591,323.038330 22.077759,321.790894 3.258818,322.480743 
	C2.768855,322.498718 2.285095,322.685913 1.399221,322.897095 
	C1.000000,301.312439 1.000000,279.624878 1.468732,257.458801 
	C20.406460,256.930542 38.875473,256.886475 57.344440,256.828003 
	C63.813034,256.807526 64.554886,256.197937 64.594643,249.763794 
	C64.695404,233.456970 64.567612,217.148178 64.757881,200.842834 
	C64.809456,196.423004 62.921509,194.971954 58.808064,194.969040 
	C51.992123,194.964233 45.175953,194.540405 38.360634,194.559738 
	C25.906689,194.595062 13.436731,193.515656 1.000000,195.000000 
	C1.000000,173.312439 1.000000,151.624878 1.378475,129.515854 
	C2.743617,129.237274 3.742737,129.562408 4.715100,129.495972 
	C22.362246,128.290100 40.034851,129.348068 57.689972,128.873291 
	C64.000916,128.703568 64.605461,128.292831 64.631577,122.052719 
	C64.696442,106.553253 64.684769,91.053459 64.704613,75.553802 
	C64.718018,65.079994 64.718521,65.059120 74.999931,65.014153 
	C90.499428,64.946365 105.999123,64.922501 121.498634,64.856956 
	C128.471878,64.827469 128.687683,64.576683 128.683517,57.425068 
	C128.675461,43.591919 128.777374,29.757435 128.606033,15.926324 
	C128.544449,10.955453 129.308670,5.926876 128.000000,1.000000 
	C149.687561,1.000000 171.375122,1.000000 193.531342,1.000000 
M104.499817,192.908752 
	C110.998535,192.871521 117.497627,192.778076 123.995811,192.821320 
	C127.135933,192.842224 128.643661,191.401703 128.640472,188.324646 
	C128.622528,170.995316 128.611481,153.665924 128.551926,136.336700 
	C128.539536,132.733948 126.838196,130.934433 122.984985,130.956528 
	C116.493286,130.993759 110.000397,130.620560 103.506721,130.561447 
	C93.177742,130.467392 82.847687,130.467987 72.518112,130.473129 
	C68.296700,130.475220 65.818169,131.817154 65.905678,136.892685 
	C66.195793,153.717834 66.156837,170.550720 66.044563,187.379303 
	C66.017616,191.418442 67.338402,193.015518 71.507240,192.940796 
	C82.168198,192.749710 92.835243,192.898453 104.499817,192.908752 
z"/>
<path fill="#000000" opacity="1.000000" stroke="none" 
	d="
M0.999998,961.468628 
	C2.633037,961.253235 4.293017,961.838562 5.894974,961.708557 
	C23.368212,960.291199 40.873650,961.139099 58.361126,960.960388 
	C63.106083,960.911865 64.829193,959.366577 64.770195,954.566956 
	C64.573578,938.570312 64.715683,922.569519 64.726898,906.570312 
	C64.733192,897.589417 64.733238,897.545044 73.920349,897.750366 
	C77.837563,897.837891 82.074860,897.127014 84.456329,901.657959 
	C85.419830,903.491028 86.119545,905.205078 85.695335,907.338196 
	C84.707207,912.307190 86.140610,916.236816 90.082451,919.742798 
	C97.049461,925.939453 103.543243,932.572632 113.173828,934.755676 
	C117.282944,935.687134 118.861763,939.589172 120.568268,943.059448 
	C122.073044,946.119568 123.240707,949.863525 127.725418,946.757385 
	C129.796738,949.834106 129.128662,952.760254 129.259308,955.510498 
	C129.430756,959.119019 130.717209,960.899170 134.706299,960.864075 
	C152.203979,960.709961 169.704224,960.711670 187.202271,960.835083 
	C191.332916,960.864197 192.908417,959.209229 192.789948,955.194641 
	C192.667206,951.035522 192.784744,946.861572 192.982925,942.703003 
	C193.131714,939.580872 194.616135,937.338684 198.090256,938.367737 
	C210.506165,942.045227 222.493225,939.160645 234.508743,936.323303 
	C237.590073,935.595703 240.702103,934.975708 243.745636,934.114197 
	C261.267487,929.153931 274.614655,939.836609 282.066681,949.393799 
	C286.403961,954.956421 283.051392,961.352295 275.852295,961.962280 
	C270.717773,962.397339 265.526825,962.326599 260.364838,962.244385 
	C247.881119,962.045471 235.408157,962.294983 222.904083,961.583923 
	C215.387405,961.156616 207.634705,962.156433 199.983414,962.429199 
	C195.375473,962.593445 193.838257,965.048035 193.895187,969.578064 
	C194.123367,987.739929 194.075165,1005.905273 194.064575,1024.534668 
	C172.312439,1025.000000 150.624878,1025.000000 128.603271,1024.610596 
	C129.054626,1006.281189 128.632858,988.336243 128.505569,970.392090 
	C128.455566,963.342224 127.508125,962.012085 120.478394,962.348755 
	C104.859505,963.096619 89.259598,961.706360 73.647995,962.285400 
	C66.587524,962.547302 66.600578,962.404724 65.625511,969.167358 
	C65.341850,971.134644 64.964539,973.092163 64.520996,975.029236 
	C64.439285,975.386047 63.832672,975.622681 63.543678,975.854431 
	C61.874882,975.641663 61.502632,973.354370 59.496964,973.829773 
	C57.799545,974.635254 57.135471,976.419434 56.548901,978.106140 
	C54.339985,984.457764 53.299213,990.868652 54.576527,997.679993 
	C55.999062,1005.265625 58.578762,1012.885742 55.473152,1020.714233 
	C54.569191,1022.992859 56.570431,1023.910706 58.000000,1025.000000 
	C39.068954,1025.000000 20.137909,1025.000000 1.000000,1025.000000 
	C1.000000,1003.979553 1.000000,982.958435 0.999998,961.468628 
z"/>
<path fill="#000000" opacity="1.000000" stroke="none" 
	d="
M1025.000000,641.531372 
	C1017.024170,642.656250 1009.038940,642.315125 1001.065002,642.071167 
	C994.975403,641.884949 991.366760,637.407593 987.981323,633.235352 
	C985.537903,630.224121 983.787598,626.812317 979.223755,626.863098 
	C978.020264,626.876526 976.927429,626.256165 976.277588,625.218140 
	C971.962463,618.325317 966.638062,612.099426 962.839417,604.869080 
	C962.535828,604.291199 962.242249,603.624146 962.226196,602.991333 
	C961.860596,588.567993 959.421204,574.161438 961.849670,559.713318 
	C962.127625,558.059937 962.399658,556.526917 963.965759,555.418335 
	C969.449097,551.536682 970.736633,546.183411 966.111450,541.896057 
	C958.863098,535.177063 961.095215,526.903809 961.119934,519.000732 
	C961.131653,515.252808 964.795166,514.472656 967.740356,514.150452 
	C973.515869,513.518738 979.335388,513.061035 985.142212,512.990234 
	C998.114075,512.831970 1011.089355,512.955627 1024.531616,512.982239 
	C1025.000000,555.687561 1025.000000,598.375122 1025.000000,641.531372 
z"/>
<path fill="#000000" opacity="1.000000" stroke="none" 
	d="
M1.000000,833.468628 
	C17.473921,832.998901 33.947842,832.997437 50.421761,832.997742 
	C51.420231,832.997803 52.419319,832.992737 53.417080,833.023621 
	C64.820976,833.376648 67.421494,836.863281 64.814789,848.164001 
	C64.363495,850.120544 63.160149,851.088928 61.533348,852.191345 
	C56.897736,855.332581 51.563450,857.668945 48.315437,862.569397 
	C44.798813,867.875061 45.484035,870.792358 51.050980,873.598816 
	C56.620007,876.406372 56.959003,882.582947 59.850903,887.095276 
	C61.584789,889.800720 62.222332,893.208862 63.838757,897.631104 
	C42.849468,898.669739 22.379738,898.143738 1.463088,898.081055 
	C1.000000,876.645752 1.000000,855.291565 1.000000,833.468628 
z"/>
<path fill="#000000" opacity="1.000000" stroke="none" 
	d="
M1.000000,385.468658 
	C17.486376,384.988373 33.974209,384.838837 50.458618,385.013092 
	C61.653603,385.131409 63.392708,387.534241 60.043163,398.288544 
	C56.482903,409.719299 52.630653,421.064545 48.649071,432.356567 
	C46.494907,438.465851 41.358540,441.690704 35.600605,443.805786 
	C32.603626,444.906738 29.652731,445.910461 27.228287,448.076569 
	C25.234081,449.858276 22.758821,450.064301 20.222895,450.229156 
	C14.080115,450.628601 7.901451,449.612549 1.390930,450.865601 
	C1.000000,429.312439 1.000000,407.624878 1.000000,385.468658 
z"/>
<path fill="#000000" opacity="1.000000" stroke="none" 
	d="
M1025.000000,449.531342 
	C1021.693726,450.045898 1018.363708,449.856812 1015.086426,450.188751 
	C1009.060608,450.799133 1004.733521,448.740234 1002.660889,442.897614 
	C1001.582520,439.857849 999.476746,438.209564 996.747620,436.617371 
	C994.092041,435.068085 992.012024,432.495361 989.775574,430.275024 
	C987.519409,428.035034 985.298889,425.674255 982.206970,424.714355 
	C974.763733,422.403473 970.764893,416.594208 965.983704,410.930756 
	C960.546570,404.490448 962.771912,397.411804 961.400635,390.686310 
	C960.834229,387.908264 963.115784,386.983337 965.310974,386.438660 
	C970.837830,385.067230 976.484070,384.806274 982.147827,384.818085 
	C996.120056,384.847198 1010.092346,384.894897 1024.532227,384.967590 
	C1025.000000,406.354218 1025.000000,427.708466 1025.000000,449.531342 
z"/>
<path fill="#000000" opacity="1.000000" stroke="none" 
	d="
M1.000000,705.468628 
	C9.471673,705.003113 17.962519,704.644043 26.410679,705.091309 
	C40.233952,705.823059 38.090942,704.949158 36.398849,717.068054 
	C35.205387,725.615601 34.020615,734.208984 31.701159,742.574646 
	C30.772535,745.923950 32.352043,748.725525 33.955658,751.498962 
	C39.999386,761.951416 35.400612,769.892883 23.219042,770.257507 
	C16.076357,770.471313 8.911288,769.719116 1.394795,770.879395 
	C1.000000,749.312439 1.000000,727.624878 1.000000,705.468628 
z"/>
<path fill="#000000" opacity="1.000000" stroke="none" 
	d="
M1.000000,577.468628 
	C6.922609,578.231812 12.931191,577.269653 18.894817,577.668945 
	C22.380480,577.902222 24.090679,578.687195 24.460546,582.762512 
	C25.275515,591.742004 24.897129,600.702087 24.916109,609.665161 
	C24.926817,614.722473 25.502417,619.491638 27.471842,624.240112 
	C29.290646,628.625427 30.710592,633.082825 27.772633,638.026917 
	C25.942486,641.106750 23.960453,642.119812 20.695740,642.254822 
	C14.393438,642.515381 8.065059,641.740112 1.393176,642.874023 
	C1.000000,621.312439 1.000000,599.624878 1.000000,577.468628 
z"/>
<path fill="#000000" opacity="1.000000" stroke="none" 
	d="
M631.531372,1.000000 
	C625.876709,2.264177 621.780823,7.040412 616.790405,10.172647 
	C611.000305,13.806762 606.572083,12.222977 602.501648,8.381450 
	C598.983215,5.060899 594.827820,3.248837 590.296753,1.184917 
	C603.687561,1.000000 617.375122,1.000000 631.531372,1.000000 
z"/>
<path fill="#000000" opacity="1.000000" stroke="none" 
	d="
M494.531342,0.999994 
	C492.789948,2.762237 490.588440,4.535332 488.368103,6.284540 
	C483.215118,10.344098 479.719116,10.742921 474.237946,7.432058 
	C469.931549,4.830803 465.355988,2.947641 460.308533,1.188431 
	C471.354218,1.000000 482.708466,1.000000 494.531342,0.999994 
z"/>
<path fill="#000000" opacity="1.000000" stroke="none" 
	d="
M576.490601,364.530396 
	C626.219910,432.213898 675.737244,499.608337 725.269775,566.991638 
	C730.696594,574.374207 736.216187,581.688477 741.682678,589.041931 
	C748.457581,598.155212 745.788513,605.948608 734.819458,608.993469 
	C640.395020,635.204712 545.954834,661.359192 451.547150,687.630432 
	C400.092896,701.948792 348.693237,716.463501 297.266083,730.879272 
	C293.753021,731.863953 290.296082,733.061768 286.551392,731.523499 
	C280.587341,729.073486 278.207794,723.111755 280.811279,716.090698 
	C289.146576,693.612305 297.556274,671.161499 305.938568,648.700500 
	C329.222076,586.310364 352.404877,523.882446 375.820007,461.541748 
	C397.479126,403.876312 419.392975,346.306580 441.182098,288.689941 
	C447.423615,272.185608 453.726471,255.703049 459.777802,239.128952 
	C461.685089,233.905121 464.263794,229.780136 470.213531,229.039764 
	C475.929413,228.328506 479.475800,231.576401 482.595337,235.863159 
	C510.041687,273.579132 537.547119,311.252106 565.040894,348.933563 
	C568.771912,354.047058 572.534912,359.137115 576.490601,364.530396 
M441.029175,552.294067 
	C438.928741,562.163696 436.828308,572.033386 434.561096,582.686768 
	C523.229492,579.261841 611.077393,575.868652 700.348145,572.420410 
	C632.141479,479.463867 564.756226,387.626801 497.123962,295.453033 
	C495.042908,298.351379 494.791077,300.864044 494.276276,303.254059 
	C487.380371,335.268555 480.496338,367.285675 473.654297,399.311737 
	C462.819550,450.026794 452.018738,500.749146 441.029175,552.294067 
M407.843872,443.224365 
	C378.863953,520.595093 349.884064,597.965820 320.770325,675.693787 
	C323.410889,675.742981 324.087280,674.411987 324.981598,673.518127 
	C352.076691,646.438049 379.132538,619.318665 406.253662,592.264709 
	C408.349091,590.174500 409.579529,587.929382 410.163116,585.009338 
	C411.856323,576.536682 413.881653,568.131226 415.684204,559.679626 
	C429.167206,496.462860 442.595551,433.234406 456.108765,370.024109 
	C463.057861,337.518677 470.121887,305.037750 477.216705,272.563812 
	C477.778870,269.990753 477.493256,268.176758 474.448090,266.339569 
	C452.208557,325.403290 430.164032,383.949036 407.843872,443.224365 
M421.151794,610.592834 
	C393.306549,638.471863 365.461273,666.350952 337.616028,694.229980 
	C337.834167,694.584717 338.052307,694.939514 338.270447,695.294250 
	C456.044678,662.474731 573.818909,629.655212 691.593140,596.835693 
	C680.732727,596.065125 670.100708,596.728699 659.457886,597.189697 
	C627.853027,598.558411 596.241272,599.767029 564.631409,601.018799 
	C520.041504,602.784668 475.452454,604.575623 430.857758,606.212280 
	C427.109161,606.349854 423.985046,607.011047 421.151794,610.592834 
z"/>
<path fill="#000000" opacity="1.000000" stroke="none" 
	d="
M733.515259,840.481201 
	C735.402100,837.313660 737.364807,837.899719 739.192017,839.988159 
	C740.260803,841.209778 740.770203,842.930298 738.762512,843.591431 
	C736.313843,844.397827 733.707886,844.596069 733.515259,840.481201 
z"/>
</svg>